<?xml version="1.0" encoding="iso-8859-1"?>
<!-- Uploaded to: SVG Repo, www.svgrepo.com, Generator: SVG Repo Mixer Tools -->
<svg height="800px" width="800px" style="transform: scale(-1,1)" version="1.1" id="Layer_1" xmlns="http://www.w3.org/2000/svg" xmlns:xlink="http://www.w3.org/1999/xlink" 
	 viewBox="0 0 512 512" xml:space="preserve">
<path style="fill:#FFDA79;" d="M209.819,512h-54.685C83.604,512,46.18,454.997,46.18,398.687
	c0-56.319,37.425-113.332,108.954-113.332h16.632c16.186,0,29.355-13.168,29.355-29.355s-13.168-29.355-29.355-29.355h-16.632
	c-71.531,0-108.954-57.003-108.954-113.313C46.18,57.012,83.605,0,155.135,0h54.685c141.159,0,255.999,114.841,255.999,256.001
	C465.819,397.158,350.978,512,209.819,512z"/>
<path style="fill:#FFD155;" d="M256,4.183v503.634c119.192-21.804,209.82-126.421,209.82-251.818
	C465.819,130.605,375.192,25.987,256,4.183z"/>
<path style="fill:#65C6BB;" d="M231.945,180.331c-33.452,0-60.667-27.215-60.667-60.667s27.215-60.667,60.667-60.667
	s60.667,27.215,60.667,60.667S265.397,180.331,231.945,180.331z"/>
<path style="fill:#FF7876;" d="M325.805,328.996c-40.251,0-72.996-32.745-72.996-72.996s32.745-72.996,72.996-72.996
	c40.25,0,72.996,32.745,72.996,72.996S366.056,328.996,325.805,328.996z"/>
<path style="fill:#51B3DA;" d="M231.945,453.002c-33.452,0-60.667-27.216-60.667-60.667c0-33.452,27.215-60.667,60.667-60.667
	s60.667,27.215,60.667,60.667C292.613,425.787,265.397,453.002,231.945,453.002z"/>
<path style="fill:#FF5E5B;" d="M325.805,183.004L325.805,183.004v145.991l0,0c40.25,0,72.996-32.745,72.996-72.996
	S366.056,183.004,325.805,183.004z"/>
<path style="fill:#238CC5;" d="M231.946,331.669v121.334c33.452,0,60.667-27.216,60.667-60.667
	C292.613,358.883,265.397,331.669,231.946,331.669z"/>
<path style="fill:#20B8AE;" d="M231.946,58.998v121.334c33.452,0,60.667-27.215,60.667-60.667S265.397,58.999,231.946,58.998z"/>
</svg>
